<svg xmlns="http://www.w3.org/2000/svg" xmlns:xlink="http://www.w3.org/1999/xlink" width="500" zoomAndPan="magnify" viewBox="0 0 375 112.499997" height="150" preserveAspectRatio="xMidYMid meet" version="1.0"><defs><g/><clipPath id="15a8759430"><path d="M 29.226562 10.789062 L 119.574219 10.789062 L 119.574219 101.140625 L 29.226562 101.140625 Z M 29.226562 10.789062 " clip-rule="nonzero"/></clipPath><clipPath id="5994051cd3"><path d="M 300 30 L 331 30 L 331 61 L 300 61 Z M 300 30 " clip-rule="nonzero"/></clipPath><clipPath id="ec5300c17f"><path d="M 315.886719 15.964844 L 345.984375 46.058594 L 330.144531 61.898438 L 300.046875 31.804688 Z M 315.886719 15.964844 " clip-rule="nonzero"/></clipPath><clipPath id="abd770e895"><path d="M 315.886719 15.964844 L 345.984375 46.058594 L 330.144531 61.898438 L 300.046875 31.804688 Z M 315.886719 15.964844 " clip-rule="nonzero"/></clipPath><clipPath id="3aa5566273"><path d="M 134 51 L 165 51 L 165 82 L 134 82 Z M 134 51 " clip-rule="nonzero"/></clipPath><clipPath id="574b512737"><path d="M 149.382812 96.03125 L 119.816406 66.464844 L 135.65625 50.625 L 165.222656 80.191406 Z M 149.382812 96.03125 " clip-rule="nonzero"/></clipPath><clipPath id="fa22340061"><path d="M 149.382812 96.03125 L 119.816406 66.464844 L 135.65625 50.625 L 165.222656 80.191406 Z M 149.382812 96.03125 " clip-rule="nonzero"/></clipPath></defs><g clip-path="url(#15a8759430)"><path fill="#38b6ff" d="M 29.226562 10.789062 L 29.226562 101.210938 L 81.210938 101.210938 L 81.210938 41.203125 L 102.183594 41.203125 L 102.183594 37.617188 L 81.210938 37.617188 L 81.210938 30.84375 L 102.183594 30.84375 L 102.183594 27.304688 L 46.5625 27.304688 L 46.5625 30.84375 L 77.597656 30.84375 L 77.597656 37.640625 L 46.5625 37.640625 L 46.5625 41.230469 L 67.585938 41.230469 L 67.585938 94.183594 L 71.199219 94.183594 L 71.199219 41.230469 L 77.625 41.230469 L 77.625 97.523438 L 32.9375 97.523438 L 32.9375 14.578125 L 115.882812 14.578125 L 115.882812 97.523438 L 86.144531 97.523438 L 86.144531 101.210938 L 119.644531 101.210938 L 119.644531 10.789062 Z M 29.226562 10.789062 " fill-opacity="1" fill-rule="nonzero"/></g><g clip-path="url(#5994051cd3)"><g clip-path="url(#ec5300c17f)"><g clip-path="url(#abd770e895)"><path fill="#cc74ff" d="M 328.996094 32.738281 L 328.996094 60.84375 L 330.777344 60.84375 L 330.777344 30.953125 L 300.886719 30.953125 L 300.890625 32.734375 Z M 328.996094 32.738281 " fill-opacity="1" fill-rule="nonzero"/></g></g></g><g clip-path="url(#3aa5566273)"><g clip-path="url(#574b512737)"><g clip-path="url(#fa22340061)"><path fill="#cc74ff" d="M 136.335938 79.34375 L 136.335938 51.375 L 134.5625 51.375 L 134.5625 81.117188 L 164.304688 81.117188 L 164.304688 79.34375 Z M 136.335938 79.34375 " fill-opacity="1" fill-rule="nonzero"/></g></g></g><g fill="#ffffff" fill-opacity="1"><g transform="translate(143.417585, 65.918666)"><g><path d="M 16.625 -20.59375 L 16.625 -16.578125 L 11.171875 -16.578125 L 11.171875 0 L 6.15625 0 L 6.15625 -16.578125 L 0.703125 -16.578125 L 0.703125 -20.59375 Z M 16.625 -20.59375 "/></g></g></g><g fill="#ffffff" fill-opacity="1"><g transform="translate(160.749818, 65.918666)"><g><path d="M 6.828125 -16.578125 L 6.828125 -12.40625 L 13.546875 -12.40625 L 13.546875 -8.53125 L 6.828125 -8.53125 L 6.828125 -4.015625 L 14.421875 -4.015625 L 14.421875 0 L 1.8125 0 L 1.8125 -20.59375 L 14.421875 -20.59375 L 14.421875 -16.578125 Z M 6.828125 -16.578125 "/></g></g></g><g fill="#ffffff" fill-opacity="1"><g transform="translate(176.615696, 65.918666)"><g><path d="M 0.96875 -10.328125 C 0.96875 -12.359375 1.40625 -14.171875 2.28125 -15.765625 C 3.164062 -17.359375 4.394531 -18.597656 5.96875 -19.484375 C 7.539062 -20.378906 9.328125 -20.828125 11.328125 -20.828125 C 13.765625 -20.828125 15.851562 -20.179688 17.59375 -18.890625 C 19.332031 -17.597656 20.5 -15.835938 21.09375 -13.609375 L 15.578125 -13.609375 C 15.160156 -14.472656 14.578125 -15.128906 13.828125 -15.578125 C 13.078125 -16.023438 12.222656 -16.25 11.265625 -16.25 C 9.710938 -16.25 8.457031 -15.707031 7.5 -14.625 C 6.550781 -13.550781 6.078125 -12.117188 6.078125 -10.328125 C 6.078125 -8.523438 6.550781 -7.085938 7.5 -6.015625 C 8.457031 -4.941406 9.710938 -4.40625 11.265625 -4.40625 C 12.222656 -4.40625 13.078125 -4.628906 13.828125 -5.078125 C 14.578125 -5.523438 15.160156 -6.175781 15.578125 -7.03125 L 21.09375 -7.03125 C 20.5 -4.8125 19.332031 -3.0625 17.59375 -1.78125 C 15.851562 -0.5 13.765625 0.140625 11.328125 0.140625 C 9.328125 0.140625 7.539062 -0.300781 5.96875 -1.1875 C 4.394531 -2.070312 3.164062 -3.304688 2.28125 -4.890625 C 1.40625 -6.472656 0.96875 -8.285156 0.96875 -10.328125 Z M 0.96875 -10.328125 "/></g></g></g><g fill="#ffffff" fill-opacity="1"><g transform="translate(198.96284, 65.918666)"><g><path d="M 19.65625 -20.59375 L 19.65625 0 L 14.640625 0 L 14.640625 -8.46875 L 6.828125 -8.46875 L 6.828125 0 L 1.8125 0 L 1.8125 -20.59375 L 6.828125 -20.59375 L 6.828125 -12.515625 L 14.640625 -12.515625 L 14.640625 -20.59375 Z M 19.65625 -20.59375 "/></g></g></g><g fill="#ffffff" fill-opacity="1"><g transform="translate(220.400841, 65.918666)"><g/></g></g><g fill="#ffffff" fill-opacity="1"><g transform="translate(226.618161, 65.918666)"><g><path d="M 16.625 -20.59375 L 16.625 -16.578125 L 11.171875 -16.578125 L 11.171875 0 L 6.15625 0 L 6.15625 -16.578125 L 0.703125 -16.578125 L 0.703125 -20.59375 Z M 16.625 -20.59375 "/></g></g></g><g fill="#ffffff" fill-opacity="1"><g transform="translate(243.950394, 65.918666)"><g><path d="M 12.3125 0 L 8.03125 -7.765625 L 6.828125 -7.765625 L 6.828125 0 L 1.8125 0 L 1.8125 -20.59375 L 10.234375 -20.59375 C 11.859375 -20.59375 13.238281 -20.304688 14.375 -19.734375 C 15.519531 -19.171875 16.375 -18.394531 16.9375 -17.40625 C 17.507812 -16.414062 17.796875 -15.316406 17.796875 -14.109375 C 17.796875 -12.734375 17.410156 -11.507812 16.640625 -10.4375 C 15.867188 -9.363281 14.734375 -8.601562 13.234375 -8.15625 L 17.984375 0 Z M 6.828125 -11.328125 L 9.9375 -11.328125 C 10.863281 -11.328125 11.554688 -11.550781 12.015625 -12 C 12.472656 -12.445312 12.703125 -13.082031 12.703125 -13.90625 C 12.703125 -14.6875 12.472656 -15.300781 12.015625 -15.75 C 11.554688 -16.195312 10.863281 -16.421875 9.9375 -16.421875 L 6.828125 -16.421875 Z M 6.828125 -11.328125 "/></g></g></g><g fill="#ffffff" fill-opacity="1"><g transform="translate(263.071565, 65.918666)"><g><path d="M 14.640625 -3.640625 L 6.953125 -3.640625 L 5.71875 0 L 0.46875 0 L 7.921875 -20.59375 L 13.71875 -20.59375 L 21.171875 0 L 15.859375 0 Z M 13.34375 -7.515625 L 10.796875 -15.046875 L 8.265625 -7.515625 Z M 13.34375 -7.515625 "/></g></g></g><g fill="#ffffff" fill-opacity="1"><g transform="translate(284.685539, 65.918666)"><g><path d="M 9.53125 -20.59375 C 11.695312 -20.59375 13.59375 -20.160156 15.21875 -19.296875 C 16.84375 -18.429688 18.097656 -17.222656 18.984375 -15.671875 C 19.878906 -14.117188 20.328125 -12.328125 20.328125 -10.296875 C 20.328125 -8.273438 19.878906 -6.484375 18.984375 -4.921875 C 18.097656 -3.359375 16.835938 -2.144531 15.203125 -1.28125 C 13.566406 -0.425781 11.675781 0 9.53125 0 L 1.8125 0 L 1.8125 -20.59375 Z M 9.203125 -4.34375 C 11.097656 -4.34375 12.570312 -4.859375 13.625 -5.890625 C 14.6875 -6.929688 15.21875 -8.398438 15.21875 -10.296875 C 15.21875 -12.191406 14.6875 -13.664062 13.625 -14.71875 C 12.570312 -15.78125 11.097656 -16.3125 9.203125 -16.3125 L 6.828125 -16.3125 L 6.828125 -4.34375 Z M 9.203125 -4.34375 "/></g></g></g><g fill="#ffffff" fill-opacity="1"><g transform="translate(306.006234, 65.918666)"><g><path d="M 6.828125 -16.578125 L 6.828125 -12.40625 L 13.546875 -12.40625 L 13.546875 -8.53125 L 6.828125 -8.53125 L 6.828125 -4.015625 L 14.421875 -4.015625 L 14.421875 0 L 1.8125 0 L 1.8125 -20.59375 L 14.421875 -20.59375 L 14.421875 -16.578125 Z M 6.828125 -16.578125 "/></g></g></g></svg>