<svg xmlns="http://www.w3.org/2000/svg" xmlns:xlink="http://www.w3.org/1999/xlink" width="500" zoomAndPan="magnify" viewBox="0 0 375 299.999988" height="400" preserveAspectRatio="xMidYMid meet" version="1.0"><defs><clipPath id="32c98b2bae"><path d="M 89.84375 52.34375 L 284.84375 52.34375 L 284.84375 247.34375 L 89.84375 247.34375 Z M 89.84375 52.34375 " clip-rule="nonzero"/></clipPath><clipPath id="563e7dbf6f"><path d="M 207 24 L 314 24 L 314 131 L 207 131 Z M 207 24 " clip-rule="nonzero"/></clipPath><clipPath id="72afe7f1b0"><path d="M 260.296875 -28.863281 L 366.363281 77.203125 L 310.144531 133.417969 L 204.082031 27.355469 Z M 260.296875 -28.863281 " clip-rule="nonzero"/></clipPath><clipPath id="eae98bfc08"><path d="M 260.296875 -28.863281 L 366.363281 77.203125 L 310.144531 133.417969 L 204.082031 27.355469 Z M 260.296875 -28.863281 " clip-rule="nonzero"/></clipPath><clipPath id="4e7a844fc8"><path d="M 61 169 L 168 169 L 168 276 L 61 276 Z M 61 169 " clip-rule="nonzero"/></clipPath><clipPath id="5d77f7c5b4"><path d="M 114.703125 328.859375 L 8.636719 222.796875 L 64.855469 166.582031 L 170.917969 272.644531 Z M 114.703125 328.859375 " clip-rule="nonzero"/></clipPath><clipPath id="35d5fb5dbd"><path d="M 114.703125 328.859375 L 8.636719 222.796875 L 64.855469 166.582031 L 170.917969 272.644531 Z M 114.703125 328.859375 " clip-rule="nonzero"/></clipPath></defs><g clip-path="url(#32c98b2bae)"><path fill="#38b6ff" d="M 89.84375 52.34375 L 89.84375 247.648438 L 202.132812 247.648438 L 202.132812 118.039062 L 247.433594 118.039062 L 247.433594 110.292969 L 202.132812 110.292969 L 202.132812 95.65625 L 247.433594 95.65625 L 247.433594 88.015625 L 127.292969 88.015625 L 127.292969 95.65625 L 194.332031 95.65625 L 194.332031 110.34375 L 127.292969 110.34375 L 127.292969 118.09375 L 172.703125 118.09375 L 172.703125 232.476562 L 180.503906 232.476562 L 180.503906 118.09375 L 194.382812 118.09375 L 194.382812 239.6875 L 97.863281 239.6875 L 97.863281 60.523438 L 277.027344 60.523438 L 277.027344 239.6875 L 212.785156 239.6875 L 212.785156 247.648438 L 285.148438 247.648438 L 285.148438 52.34375 Z M 89.84375 52.34375 " fill-opacity="1" fill-rule="nonzero"/></g><g clip-path="url(#563e7dbf6f)"><g clip-path="url(#72afe7f1b0)"><g clip-path="url(#eae98bfc08)"><path fill="#cc74ff" d="M 306.820312 30.679688 L 306.820312 130.445312 L 313.148438 130.449219 L 313.148438 24.351562 L 207.050781 24.351562 L 207.054688 30.679688 Z M 306.820312 30.679688 " fill-opacity="1" fill-rule="nonzero"/></g></g></g><g clip-path="url(#4e7a844fc8)"><g clip-path="url(#5d77f7c5b4)"><g clip-path="url(#35d5fb5dbd)"><path fill="#cc74ff" d="M 68.179688 269.320312 L 68.179688 169.554688 L 61.851562 169.550781 L 61.851562 275.648438 L 167.949219 275.648438 L 167.945312 269.320312 Z M 68.179688 269.320312 " fill-opacity="1" fill-rule="nonzero"/></g></g></g></svg>